<svg width="85" height="37" viewBox="0 0 85 37" fill="none" xmlns="http://www.w3.org/2000/svg">
<path d="M10.3 14H1.56V0.659999H10.3V2.14H3.22V6.44H10.16V7.92H3.22V12.52H10.3V14ZM17.1067 14H15.4667L11.4467 4.34H13.0867L16.2867 12.26L19.5067 4.34H21.1267L17.1067 14ZM27.0714 14.24C24.1914 14.24 22.1314 12.18 22.1314 9.16C22.1314 6.36 24.1314 4.1 26.8914 4.1C29.8114 4.1 31.5314 6.38 31.5314 9.28V9.66H23.7314C23.8514 11.48 25.1114 13 27.1914 13C28.3114 13 29.4114 12.56 30.1914 11.76L30.9114 12.74C29.9314 13.7 28.6314 14.24 27.0714 14.24ZM30.0514 8.54C30.0314 7.12 29.0714 5.34 26.8714 5.34C24.8114 5.34 23.7914 7.08 23.7114 8.54H30.0514ZM35.4609 14H33.9609V4.34H35.4609V5.88C36.2409 4.88 37.3609 4.12 38.6809 4.12V5.66C38.5009 5.64 38.3209 5.62 38.1009 5.62C37.1609 5.62 35.9009 6.38 35.4609 7.16V14ZM44.1625 17.92C42.5625 17.92 41.4425 17.44 40.4625 16.46L41.2225 15.38C41.9425 16.28 43.0025 16.68 44.1625 16.68C45.9825 16.68 47.0825 15.64 47.0825 13.88V12.44C46.3425 13.28 45.0825 14.04 43.6425 14.04C41.6225 14.04 40.5625 13.06 40.5625 10.96V4.34H42.0625V10.5C42.0625 12.2 42.9225 12.72 44.2425 12.72C45.4025 12.72 46.5225 12.02 47.0825 11.26V4.34H48.5825V13.88C48.5825 16.62 46.5425 17.92 44.1625 17.92ZM6.52 36H4.86V24.14H0.64V22.66H10.76V24.14H6.52V36ZM19.1016 36H17.6016V34.56C16.8816 35.54 15.7016 36.24 14.3416 36.24C11.8216 36.24 10.0416 34.32 10.0416 31.18C10.0416 28.08 11.8216 26.1 14.3416 26.1C15.6416 26.1 16.8216 26.74 17.6016 27.8V26.34H19.1016V36ZM14.7216 34.9C15.9016 34.9 17.0816 34.2 17.6016 33.36V29C17.0816 28.16 15.9016 27.44 14.7216 27.44C12.7616 27.44 11.6016 29.04 11.6016 31.18C11.6016 33.32 12.7616 34.9 14.7216 34.9ZM24.2455 36.24C22.8255 36.24 22.1055 35.42 22.1055 33.98V22.66H23.6055V33.66C23.6055 34.38 23.9255 34.9 24.5855 34.9C25.0055 34.9 25.4055 34.7 25.5855 34.48L26.0455 35.62C25.6455 35.98 25.1255 36.24 24.2455 36.24ZM31.8566 36.24C28.9766 36.24 26.9166 34.18 26.9166 31.16C26.9166 28.36 28.9166 26.1 31.6766 26.1C34.5966 26.1 36.3166 28.38 36.3166 31.28V31.66H28.5166C28.6366 33.48 29.8966 35 31.9766 35C33.0966 35 34.1966 34.56 34.9766 33.76L35.6966 34.74C34.7166 35.7 33.4166 36.24 31.8566 36.24ZM34.8366 30.54C34.8166 29.12 33.8566 27.34 31.6566 27.34C29.5966 27.34 28.5766 29.08 28.4966 30.54H34.8366ZM46.7661 36H45.2861V29.68C45.2861 27.96 44.4061 27.44 43.1061 27.44C41.9261 27.44 40.8261 28.16 40.2461 28.94V36H38.7461V26.34H40.2461V27.74C40.9261 26.92 42.2461 26.1 43.7061 26.1C45.7061 26.1 46.7661 27.12 46.7661 29.22V36ZM52.2413 36.24C50.8013 36.24 50.0813 35.42 50.0813 33.98V27.66H48.4813V26.34H50.0813V23.7H51.6013V26.34H53.5612V27.66H51.6013V33.66C51.6013 34.38 51.9213 34.9 52.5613 34.9C53.0013 34.9 53.3813 34.7 53.5813 34.48L54.0213 35.62C53.6413 35.98 53.1013 36.24 52.2413 36.24ZM65.0959 36.24C62.2159 36.24 60.2759 34.02 60.2759 31.16C60.2759 28.3 62.2159 26.1 65.0959 26.1C66.8559 26.1 67.8959 26.82 68.6359 27.78L67.6359 28.68C66.9959 27.8 66.1759 27.44 65.1759 27.44C63.1359 27.44 61.8359 29.02 61.8359 31.16C61.8359 33.3 63.1359 34.9 65.1759 34.9C66.1759 34.9 66.9959 34.5 67.6359 33.64L68.6359 34.56C67.8959 35.52 66.8559 36.24 65.0959 36.24ZM74.9778 36.24C72.0378 36.24 70.1978 33.96 70.1978 31.16C70.1978 28.36 72.0378 26.1 74.9778 26.1C77.9178 26.1 79.7578 28.36 79.7578 31.16C79.7578 33.96 77.9178 36.24 74.9778 36.24ZM74.9778 34.9C77.0378 34.9 78.1778 33.14 78.1778 31.16C78.1778 29.2 77.0378 27.44 74.9778 27.44C72.9178 27.44 71.7778 29.2 71.7778 31.16C71.7778 33.14 72.9178 34.9 74.9778 34.9ZM83.0031 36.2C82.4031 36.2 81.9031 35.7 81.9031 35.1C81.9031 34.5 82.4031 34 83.0031 34C83.6031 34 84.1031 34.5 84.1031 35.1C84.1031 35.7 83.6031 36.2 83.0031 36.2Z" fill="black"/>
</svg>
