<svg width="61" height="49" viewBox="0 0 61 49" fill="none" xmlns="http://www.w3.org/2000/svg">
<path d="M33.4271 6.15625L38.3959 6.8125C39.2396 6.90625 39.6146 8.03125 38.9584 8.6875L35.3959 12.0625L36.2396 17.0312C36.3334 17.875 35.4896 18.5312 34.6459 18.1562L30.3334 15.8125L25.9271 18.1562C25.0834 18.5312 24.1459 17.875 24.3334 17.0312L25.1771 12.1562L21.6146 8.6875C20.9584 8.03125 21.3334 7 22.1771 6.8125L27.1459 6.15625L29.3021 1.65625C29.7709 0.8125 30.8959 0.8125 31.2709 1.65625L33.4271 6.15625ZM25.8334 29.5V44.5H34.8334V29.5H25.8334ZM21.3334 29.5C21.3334 27.0625 23.3021 25 25.8334 25H34.8334C37.2709 25 39.3334 27.0625 39.3334 29.5V44.5C39.3334 47.0312 37.2709 49 34.8334 49H25.8334C23.3021 49 21.3334 47.0312 21.3334 44.5V29.5ZM4.83337 35.5V44.5H13.8334V35.5H4.83337ZM0.333374 35.5C0.333374 33.0625 2.30212 31 4.83337 31H13.8334C16.2709 31 18.3334 33.0625 18.3334 35.5V44.5C18.3334 47.0312 16.2709 49 13.8334 49H4.83337C2.30212 49 0.333374 47.0312 0.333374 44.5V35.5ZM55.8334 38.5H46.8334V44.5H55.8334V38.5ZM46.8334 34H55.8334C58.2709 34 60.3334 36.0625 60.3334 38.5V44.5C60.3334 47.0312 58.2709 49 55.8334 49H46.8334C44.3021 49 42.3334 47.0312 42.3334 44.5V38.5C42.3334 36.0625 44.3021 34 46.8334 34Z" fill="white"/>
</svg>
