<svg width="49" height="45" viewBox="0 0 49 45" fill="none" xmlns="http://www.w3.org/2000/svg">
<path d="M17.1667 5.25V9H32.1667V5.25C32.1667 4.875 31.7917 4.5 31.4167 4.5H17.9167C17.4479 4.5 17.1667 4.875 17.1667 5.25ZM12.6667 9V5.25C12.6667 2.4375 15.0104 0 17.9167 0H31.4167C34.2292 0 36.6667 2.4375 36.6667 5.25V9H42.6667C45.9479 9 48.6667 11.7188 48.6667 15V26.25V39C48.6667 42.375 45.9479 45 42.6667 45H6.66666C3.29166 45 0.666656 42.375 0.666656 39V26.25V15C0.666656 11.7188 3.29166 9 6.66666 9H12.6667ZM5.16666 28.5V39C5.16666 39.8438 5.82291 40.5 6.66666 40.5H42.6667C43.4167 40.5 44.1667 39.8438 44.1667 39V28.5H30.6667V30C30.6667 31.6875 29.2604 33 27.6667 33H21.6667C19.9792 33 18.6667 31.6875 18.6667 30V28.5H5.16666ZM18.6667 24H30.6667H44.1667V15C44.1667 14.25 43.4167 13.5 42.6667 13.5H34.4167H14.9167H6.66666C5.82291 13.5 5.16666 14.25 5.16666 15V24H18.6667Z" fill="white"/>
</svg>
