<svg width="52" height="50" viewBox="0 0 52 50" fill="none" xmlns="http://www.w3.org/2000/svg">
<path d="M21.9375 5.03125L23.25 1.46875C23.3438 1.1875 23.625 1 24 1C24.2812 1 24.5625 1.1875 24.6562 1.46875L25.9688 5.03125L29.5312 6.34375C29.8125 6.4375 30 6.71875 30 7C30 7.375 29.8125 7.65625 29.5312 7.75L25.9688 9.0625L24.6562 12.5312C24.5625 12.8125 24.2812 13 24 13C23.625 13 23.3438 12.8125 23.25 12.5312L21.9375 9.0625L18.4688 7.75C18.1875 7.65625 18 7.375 18 7C18 6.71875 18.1875 6.4375 18.4688 6.34375L21.9375 5.03125ZM43.2188 5.5L32.9062 15.8125L36.1875 19.0938L46.5 8.78125L43.2188 5.5ZM7.5 41.3125L10.6875 44.5L33 22.2812L29.7188 19L7.5 41.3125ZM40.0312 2.40625C41.8125 0.625 44.625 0.625 46.4062 2.40625L49.5938 5.59375C51.375 7.375 51.375 10.1875 49.5938 11.9688L13.875 47.6875C12.0938 49.4688 9.28125 49.4688 7.5 47.6875L4.3125 44.5C2.53125 42.7188 2.53125 39.9062 4.3125 38.125L40.0312 2.40625ZM0.65625 12.0625L6 10L7.96875 4.75C8.0625 4.28125 8.53125 4 9 4C9.375 4 9.84375 4.28125 9.9375 4.75L12 10L17.25 12.0625C17.7188 12.1562 18 12.625 18 13C18 13.4688 17.7188 13.9375 17.25 14.0312L12 16L9.9375 21.3438C9.84375 21.7188 9.375 22 9 22C8.53125 22 8.0625 21.7188 7.96875 21.3438L6 16L0.65625 14.0312C0.28125 13.9375 0 13.4688 0 13C0 12.625 0.28125 12.1562 0.65625 12.0625ZM33.6562 36.0625L39 34L40.9688 28.75C41.0625 28.2812 41.5312 28 42 28C42.375 28 42.8438 28.2812 42.9375 28.75L45 34L50.25 36.0625C50.7188 36.1562 51 36.625 51 37C51 37.4688 50.7188 37.9375 50.25 38.0312L45 40L42.9375 45.3438C42.8438 45.7188 42.375 46 42 46C41.5312 46 41.0625 45.7188 40.9688 45.3438L39 40L33.6562 38.0312C33.2812 37.9375 33 37.4688 33 37C33 36.625 33.2812 36.1562 33.6562 36.0625Z" fill="white"/>
</svg>
